<svg width="14" height="14" viewBox="0 0 14 14" fill="none" xmlns="http://www.w3.org/2000/svg">
<path d="M7 7.875C6.76794 7.875 6.54538 7.78281 6.38128 7.61872C6.21719 7.45463 6.125 7.23207 6.125 7C6.125 6.76794 6.21719 6.54538 6.38128 6.38128C6.54538 6.21719 6.76794 6.125 7 6.125C7.23206 6.125 7.45462 6.21719 7.61872 6.38128C7.78281 6.54538 7.875 6.76794 7.875 7C7.875 7.23207 7.78281 7.45463 7.61872 7.61872C7.45462 7.78281 7.23206 7.875 7 7.875ZM6.692 9.6215C6.79408 9.744 6.89675 9.863 7 9.97675C7.10325 9.863 7.20592 9.74458 7.308 9.6215C7.10269 9.62586 6.89731 9.62586 6.692 9.6215V9.6215ZM5.52825 9.54858C5.08029 9.50197 4.63528 9.4303 4.19533 9.33392C4.15158 9.53808 4.11833 9.73642 4.09617 9.92658C3.98533 10.85 4.13992 11.4112 4.375 11.5465C4.61008 11.6824 5.173 11.5354 5.91792 10.9783C6.07133 10.8634 6.22592 10.7357 6.38108 10.5963C6.07746 10.2632 5.79273 9.91346 5.52825 9.54858V9.54858ZM9.80467 9.33392C9.38642 9.42725 8.93958 9.49958 8.47175 9.54858C8.20727 9.91346 7.92254 10.2632 7.61892 10.5963C7.77408 10.7363 7.92867 10.8634 8.08208 10.9783C8.827 11.5354 9.38992 11.6824 9.625 11.5465C9.86008 11.4112 10.0141 10.85 9.90442 9.92658C9.88034 9.72763 9.84725 9.52987 9.80525 9.33392H9.80467ZM10.6505 9.10817C10.9871 10.6476 10.8103 11.8732 10.0625 12.3048C9.31467 12.7365 8.16492 12.2768 7 11.2158C5.83508 12.2768 4.68533 12.7359 3.9375 12.3043C3.18967 11.8726 3.01292 10.6476 3.34892 9.10758C1.84742 8.62983 0.875 7.86333 0.875 7C0.875 6.13667 1.84742 5.37075 3.34892 4.89183C3.01292 3.35242 3.18967 2.12683 3.9375 1.69517C4.68533 1.2635 5.83508 1.72317 7 2.78425C8.16492 1.72317 9.31467 1.26408 10.0625 1.69575C10.8103 2.12742 10.9871 3.35242 10.6511 4.89242C12.1526 5.37017 13.125 6.13667 13.125 7C13.125 7.86333 12.1526 8.62925 10.6511 9.10817H10.6505ZM6.3805 3.40375C6.23215 3.26947 6.0778 3.14198 5.91792 3.02167C5.173 2.46458 4.61008 2.31758 4.375 2.4535C4.13992 2.58883 3.98592 3.15 4.09558 4.07342C4.11892 4.26417 4.15158 4.46192 4.19475 4.66608C4.63489 4.56968 5.08009 4.49801 5.52825 4.45142C5.80533 4.0705 6.09117 3.71992 6.38108 3.40375H6.3805ZM8.47175 4.45142C8.93958 4.50042 9.38642 4.57333 9.80467 4.66608C9.84842 4.46192 9.88167 4.26358 9.90383 4.07342C10.0147 3.15 9.86008 2.58883 9.625 2.4535C9.38992 2.31758 8.827 2.46458 8.08208 3.02167C7.922 3.14196 7.76745 3.26946 7.61892 3.40375C7.90883 3.71992 8.19467 4.0705 8.47175 4.45142V4.45142ZM7.308 4.3785C7.20592 4.256 7.10325 4.137 7 4.02325C6.89675 4.137 6.79408 4.25542 6.692 4.3785C6.89731 4.37414 7.10269 4.37414 7.308 4.3785V4.3785ZM4.88367 8.57733C4.77724 8.40181 4.67455 8.22405 4.57567 8.04417C4.52025 8.19408 4.46892 8.34167 4.42225 8.48808C4.57217 8.52075 4.72617 8.5505 4.88308 8.57733H4.88367ZM6.01067 8.71383C6.66931 8.76276 7.33068 8.76276 7.98933 8.71383C8.36104 8.16781 8.69172 7.59496 8.97867 7C8.69172 6.40505 8.36104 5.8322 7.98933 5.28617C7.33068 5.23725 6.66931 5.23725 6.01067 5.28617C5.63896 5.8322 5.30828 6.40505 5.02133 7C5.30828 7.59496 5.63896 8.16781 6.01067 8.71383V8.71383ZM9.42433 5.95583C9.47975 5.80592 9.53108 5.65833 9.57775 5.51192C9.42482 5.47873 9.27117 5.44897 9.11692 5.42267C9.22314 5.5982 9.32564 5.77596 9.42433 5.95583ZM3.57583 5.73825C3.3775 5.80242 3.18967 5.87242 3.0135 5.94825C2.15892 6.31458 1.75 6.72875 1.75 7C1.75 7.27125 2.15833 7.68542 3.0135 8.05175C3.18967 8.12758 3.3775 8.19758 3.57583 8.26175C3.70533 7.85342 3.86575 7.42992 4.05708 7C3.87323 6.58873 3.71256 6.16749 3.57583 5.73825V5.73825ZM4.42167 5.51192C4.46892 5.65775 4.52025 5.80592 4.57567 5.95525C4.67456 5.77557 4.77725 5.598 4.88367 5.42267C4.72617 5.4495 4.57217 5.47925 4.42225 5.51192H4.42167ZM10.4242 8.26175C10.6225 8.19758 10.8103 8.12758 10.9865 8.05175C11.8411 7.68542 12.25 7.27125 12.25 7C12.25 6.72875 11.8417 6.31458 10.9865 5.94825C10.8023 5.86979 10.6147 5.79972 10.4242 5.73825C10.2947 6.14658 10.1342 6.57008 9.94292 7C10.1342 7.42992 10.2947 7.85283 10.4242 8.26175V8.26175ZM9.57833 8.48808C9.53108 8.34225 9.47975 8.19408 9.42433 8.04475C9.32544 8.22444 9.22275 8.402 9.11633 8.57733C9.27383 8.5505 9.42783 8.52075 9.57775 8.48808H9.57833Z" fill="white"/>
</svg>
